<?xml version="1.0" encoding="utf-8"?>
<!-- Generator: Adobe Illustrator 16.0.0, SVG Export Plug-In . SVG Version: 6.00 Build 0)  -->
<!DOCTYPE svg PUBLIC "-//W3C//DTD SVG 1.1//EN" "http://www.w3.org/Graphics/SVG/1.1/DTD/svg11.dtd">
<svg version="1.1" id="Layer_1" xmlns="http://www.w3.org/2000/svg" xmlns:xlink="http://www.w3.org/1999/xlink" x="0px" y="0px"
	 width="960px" height="560px" viewBox="0 0 960 560" enable-background="new 0 0 960 560" xml:space="preserve">
<g>
	<polygon display="none" fill="none" stroke="#000000" stroke-width="2" stroke-linejoin="round" stroke-miterlimit="10" points="
		617.251,187.169 447.546,179.187 460.752,151.85 434.094,164.832 425.221,103.597 416.043,164.832 388.706,151.623 401.631,178.24 
		340.192,187.396 401.631,196.23 388.606,222.81 388.806,222.904 416.043,209.648 427,457.325 435.044,209.648 462.271,222.904 
		448.496,196.23 	"/>
	
		<polygon fill="none" stroke="#000000" stroke-width="2" stroke-linecap="round" stroke-linejoin="round" stroke-miterlimit="10" points="
		616.133,187.229 449.546,179.187 462.752,151.85 436.094,164.832 427.22,103.597 418.043,164.832 390.706,151.623 403.631,178.24 
		339.5,187.5 403.631,196.23 390.606,222.81 390.806,222.904 418.043,209.648 427,456.492 437.044,209.648 464.271,222.904 
		450.496,196.23 	"/>
</g>
<g>
	
		<polygon display="none" fill="#FFD506" stroke="#000000" stroke-width="3" stroke-linejoin="round" stroke-miterlimit="10" points="
		619.251,187.169 449.546,179.187 462.752,151.85 436.094,164.832 427.221,103.597 418.043,164.832 390.706,151.623 403.631,178.24 
		342.192,187.396 403.631,196.23 390.606,222.81 390.806,222.904 418.043,209.648 429,457.325 437.044,209.648 464.271,222.904 
		450.496,196.23 	"/>
	
		<polygon fill="#FFD506" stroke="#C1272D" stroke-width="2" stroke-linecap="round" stroke-linejoin="round" stroke-miterlimit="10" points="
		618.133,187.229 451.546,179.187 464.752,151.85 438.094,164.832 429.22,103.597 420.043,164.832 392.706,151.623 405.631,178.24 
		344.192,187.396 405.631,196.23 392.606,222.81 392.806,222.904 420.043,209.648 429,456.492 439.044,209.648 466.271,222.904 
		452.496,196.23 	"/>
</g>
<rect x="417.667" y="177.834" fill="none" width="32.667" height="19.333"/>
<text transform="matrix(1 0 0 1 417.667 196.7617)" fill="#C1272D" font-family="'BadaBoomBB'" font-size="26">VS</text>
</svg>
